<?xml version="1.0" standalone="no"?>
<!DOCTYPE svg PUBLIC "-//W3C//DTD SVG 20010904//EN"
 "http://www.w3.org/TR/2001/REC-SVG-20010904/DTD/svg10.dtd">
<svg version="1.0" xmlns="http://www.w3.org/2000/svg"
 width="820.000000pt" height="758.000000pt" viewBox="0 0 820.000000 758.000000"
 preserveAspectRatio="xMidYMid meet">
<metadata>
Created by potrace 1.16, written by Peter Selinger 2001-2019
</metadata>
<g transform="translate(0.000000,758.000000) scale(0.100000,-0.100000)"
fill="#000000" stroke="none">
<path d="M2424 7170 c-116 -17 -191 -77 -220 -178 -16 -51 -17 -130 -18 -771
l-1 -714 -165 -57 c-421 -145 -677 -286 -865 -474 -181 -181 -230 -322 -205
-590 36 -407 202 -681 554 -913 336 -223 806 -353 1516 -418 142 -14 793 -17
967 -6 465 30 877 94 1305 202 716 181 1287 463 1610 797 207 213 299 412 299
648 0 94 -4 123 -26 190 -68 202 -237 360 -542 506 -144 69 -416 161 -614 208
l-136 32 -6 387 c-8 507 -29 681 -88 741 -41 40 -135 96 -213 125 -143 54
-327 66 -666 46 -293 -18 -419 -20 -612 -11 -348 18 -556 49 -1006 150 -301
67 -404 85 -577 100 -134 11 -215 11 -291 0z m-128 -2391 c240 -98 658 -229
923 -289 517 -117 899 -127 1476 -40 291 44 795 157 1070 239 55 16 101 28
103 26 2 -2 6 -21 9 -43 5 -39 4 -41 -53 -82 -239 -178 -635 -362 -969 -454
-301 -82 -507 -110 -825 -109 -299 0 -470 21 -760 94 -356 89 -735 261 -1017
463 l-73 51 0 93 c0 50 4 92 8 92 5 0 53 -18 108 -41z"/>
<path d="M110 3642 c0 -4 269 -428 599 -942 l598 -935 -89 -94 c-153 -162
-263 -322 -313 -455 -33 -88 -285 -994 -285 -1025 0 -8 1066 -11 3733 -11
2054 0 3736 2 3739 5 16 17 -47 341 -107 550 -125 430 -305 787 -544 1074 -88
107 -271 287 -308 304 -19 9 -80 -31 -523 -338 -276 -191 -503 -345 -505 -343
-3 3 210 254 1339 1577 202 238 367 434 365 436 -2 1 -380 13 -840 26 l-836
23 -124 -51 c-232 -96 -525 -189 -811 -258 -77 -18 -142 -36 -145 -39 -3 -2
-13 -48 -23 -101 -53 -272 -146 -466 -302 -631 -127 -134 -275 -214 -463 -249
-123 -23 -311 -16 -410 15 -192 61 -355 182 -475 351 -90 128 -146 259 -170
400 -12 66 -12 67 -48 73 -20 3 -57 6 -82 6 -44 -1 -46 -2 -79 -58 -140 -234
-336 -435 -508 -521 -137 -68 -304 -79 -417 -28 -70 32 -163 120 -222 208 -88
132 -183 368 -240 594 -14 55 -30 116 -35 137 -8 31 -23 45 -107 101 -53 36
-125 90 -158 121 l-62 56 -368 10 c-203 5 -460 12 -571 15 -112 3 -203 2 -203
-3z"/>
</g>
</svg>
